<?xml version="1.0" encoding="utf-8"?>
<!-- Generator: Adobe Illustrator 16.0.0, SVG Export Plug-In . SVG Version: 6.00 Build 0)  -->
<!DOCTYPE svg PUBLIC "-//W3C//DTD SVG 1.1//EN" "http://www.w3.org/Graphics/SVG/1.1/DTD/svg11.dtd">
<svg version="1.1" id="Layer_1" xmlns="http://www.w3.org/2000/svg" xmlns:xlink="http://www.w3.org/1999/xlink" x="0px" y="0px"
	 width="500px" height="500px" viewBox="0 0 500 500" enable-background="new 0 0 500 500" xml:space="preserve">
<circle fill="#00A651" cx="358.318" cy="367.935" r="100"/>
<g>
	<path fill="none" stroke="#00A651" stroke-width="3" stroke-linecap="round" stroke-linejoin="round" d="M255.928,136.141
		c0,27.614,11.192,52.614,29.289,70.71"/>
	<path fill="none" stroke="#00A651" stroke-width="3" stroke-linecap="round" stroke-linejoin="round" d="M455.928,136.141
		c0-27.614-11.193-52.615-29.29-70.711"/>
	<path fill="none" stroke="#00A651" stroke-width="3" stroke-linecap="round" stroke-linejoin="round" d="M355.928,236.141
		c27.614,0,52.614-11.193,70.71-29.289"/>
	<path fill="none" stroke="#00A651" stroke-width="3" stroke-linecap="round" stroke-linejoin="round" d="M285.217,206.851
		c18.097,18.097,43.097,29.29,70.711,29.29"/>
	<path fill="none" stroke="#00A651" stroke-width="3" stroke-linecap="round" stroke-linejoin="round" d="M426.638,206.852
		c18.097-18.096,29.29-43.097,29.29-70.711"/>
	<path fill="none" stroke="#00A651" stroke-width="3" stroke-linecap="round" stroke-linejoin="round" d="M285.217,65.43
		c-18.097,18.096-29.289,43.096-29.289,70.71"/>
	<path fill="none" stroke="#00A651" stroke-width="3" stroke-linecap="round" stroke-linejoin="round" d="M355.928,36.141
		c-27.614,0-52.614,11.193-70.711,29.29"/>
	<path fill="none" stroke="#00A651" stroke-width="3" stroke-linecap="round" stroke-linejoin="round" d="M426.638,65.43
		c-18.096-18.096-43.096-29.289-70.71-29.289"/>
	<path fill="none" d="M355.928,36.141"/>
	<path fill="none" d="M426.638,65.43"/>
</g>
</svg>
