<?xml version="1.0" encoding="utf-8"?>
<!-- Generator: Adobe Illustrator 16.0.0, SVG Export Plug-In . SVG Version: 6.00 Build 0)  -->
<!DOCTYPE svg PUBLIC "-//W3C//DTD SVG 1.1//EN" "http://www.w3.org/Graphics/SVG/1.1/DTD/svg11.dtd">
<svg version="1.1" id="Layer_1" xmlns="http://www.w3.org/2000/svg" xmlns:xlink="http://www.w3.org/1999/xlink" x="0px" y="0px"
	 width="60px" height="60px" viewBox="0 0 60 60" enable-background="new 0 0 60 60" xml:space="preserve">
<g>
	<g>
		<path fill="#243168" stroke="#FFFFFF" stroke-width="1.0274" stroke-miterlimit="10" d="M25.222,35.789h-3.783v-3.461
			l-2.837,3.801l-2.747-3.766v3.426h-3.782V22.783l6.547,7.511l6.603-7.476V35.789z"/>
		<path fill="#243168" stroke="#FFFFFF" stroke-width="1.0274" stroke-miterlimit="10" d="M29.573,32.008h5.155v3.781h-8.974V23.586
			h8.974v3.8h-5.155v0.41h5.155v3.8h-5.155V32.008z"/>
		<path fill="#243168" stroke="#FFFFFF" stroke-width="1.0274" stroke-miterlimit="10" d="M47.555,37.271l-8.492-6.726v5.245h-3.8
			v-13.06l8.492,6.708v-5.87h3.8V37.271z"/>
		<path fill="#243168" stroke="#FFFFFF" stroke-width="1.0274" stroke-miterlimit="10" d="M58.115,31.025
			c0,1.374-0.481,2.534-1.463,3.516c-0.981,0.963-2.158,1.445-3.532,1.445c-1.356,0-2.622-0.536-3.532-1.445
			c-0.91-0.91-1.481-2.142-1.481-3.516v-7.457h3.783v7.457c0,0.304,0.143,0.625,0.355,0.839c0.232,0.214,0.536,0.357,0.875,0.357
			c0.659,0,1.195-0.536,1.195-1.196v-7.457h3.8V31.025z"/>
	</g>
	<polygon fill="#243168" stroke="#FFFFFF" stroke-width="1.0274" stroke-miterlimit="10" points="7.555,35.347 7.555,24.007 
		1.885,29.677 	"/>
</g>
</svg>
